<?xml version="1.0" standalone="no"?>
<!DOCTYPE svg PUBLIC "-//W3C//DTD SVG 20010904//EN"
 "http://www.w3.org/TR/2001/REC-SVG-20010904/DTD/svg10.dtd">
<svg version="1.0" xmlns="http://www.w3.org/2000/svg"
 width="512.000000pt" height="512.000000pt" viewBox="0 0 512.000000 512.000000"
 preserveAspectRatio="xMidYMid meet">
<metadata>
Created by potrace 1.14, written by Peter Selinger 2001-2017
</metadata>
<g transform="translate(0.000000,512.000000) scale(0.100000,-0.100000)"
fill="#000000" stroke="none">
<path d="M2379 5116 c-2 -2 -40 -6 -83 -10 -44 -4 -82 -9 -85 -11 -4 -2 -34
-7 -66 -10 -109 -13 -387 -87 -490 -130 -16 -7 -55 -23 -85 -35 -221 -90 -513
-271 -680 -421 -148 -132 -278 -271 -366 -389 -77 -105 -91 -125 -142 -207
-87 -139 -176 -326 -241 -506 -20 -55 -79 -266 -87 -311 -45 -257 -49 -306
-48 -561 0 -231 14 -355 64 -561 194 -810 770 -1473 1546 -1782 195 -78 433
-140 606 -158 35 -3 67 -9 72 -12 21 -12 435 -9 540 4 116 14 166 21 200 29
12 3 32 7 46 9 14 2 54 12 90 21 36 9 73 19 83 20 77 16 286 98 442 175 138
68 333 186 400 242 11 10 49 40 85 68 298 235 578 609 735 980 57 135 129 362
142 445 2 17 8 44 13 60 8 31 24 132 39 265 19 158 7 464 -24 645 -92 538
-341 1019 -724 1402 -342 342 -808 594 -1271 687 -119 24 -132 26 -190 32 -30
3 -62 8 -70 11 -16 6 -445 14 -451 9z"/>
</g>
</svg>
